<?xml version="1.0" standalone="no"?>
<!DOCTYPE svg PUBLIC "-//W3C//DTD SVG 20010904//EN"
 "http://www.w3.org/TR/2001/REC-SVG-20010904/DTD/svg10.dtd">
<svg version="1.0" xmlns="http://www.w3.org/2000/svg"
 width="728.000000pt" height="586.000000pt" viewBox="0 0 728.000000 586.000000"
 preserveAspectRatio="xMidYMid meet">

<g transform="translate(0.000000,586.000000) scale(0.100000,-0.100000)"
fill="#000000" stroke="none">
<path d="M1050 4150 l0 -590 55 0 55 0 0 44 c0 159 80 393 186 542 136 192
311 276 634 304 63 5 134 10 158 10 l43 0 -4 -1802 c-3 -1627 -5 -1810 -20
-1875 -20 -89 -46 -149 -81 -186 -58 -62 -199 -103 -388 -114 l-108 -6 0 -54
0 -54 1283 4 c1336 4 1320 3 1547 48 337 67 612 248 795 524 134 200 192 457
166 722 -27 269 -115 471 -280 645 -149 157 -289 245 -508 317 -269 89 -448
111 -990 118 l-423 6 0 726 c0 410 5 759 10 801 14 106 35 162 82 215 74 84
173 117 386 131 l112 7 0 53 0 54 -1355 0 -1355 0 0 -590z m2455 -1701 c183
-22 285 -56 381 -124 114 -82 234 -236 293 -379 169 -407 86 -961 -180 -1200
-68 -61 -116 -88 -214 -122 -72 -25 -94 -28 -215 -28 -104 -1 -147 3 -185 17
-99 34 -156 105 -192 239 -15 56 -17 150 -20 842 l-4 779 128 -7 c70 -4 164
-11 208 -17z"/>
</g>
</svg>
